<?xml version="1.0" encoding="UTF-8"?>
<mxfile host="app.diagrams.net" agent="Mozilla/5.0 (Macintosh; Intel Mac OS X 10_15_7) AppleWebKit/537.36 (KHTML, like Gecko) Chrome/140.0.0.0 Safari/537.36" version="28.2.5">
  <diagram name="Page-1" id="MZbJxQW00NgJT1cqiRUq">
    <mxGraphModel dx="3346" dy="1874" grid="1" gridSize="10" guides="1" tooltips="1" connect="1" arrows="1" fold="1" page="1" pageScale="1" pageWidth="850" pageHeight="1100" math="0" shadow="0">
      <root>
        <mxCell id="0" />
        <mxCell id="1" parent="0" />
        <mxCell id="O3FMRK-I6ijtwoRoacnp-1" value="Start" style="ellipse;whiteSpace=wrap;html=1;" vertex="1" parent="1">
          <mxGeometry x="390" y="120" width="120" height="60" as="geometry" />
        </mxCell>
        <mxCell id="O3FMRK-I6ijtwoRoacnp-2" value="ประกาศตัวแปร H, W, Area" style="rounded=0;whiteSpace=wrap;html=1;" vertex="1" parent="1">
          <mxGeometry x="370" y="210" width="160" height="60" as="geometry" />
        </mxCell>
        <mxCell id="O3FMRK-I6ijtwoRoacnp-3" value="แสดงข้อความ &quot;Enter height (H):&quot;" style="parallelogram;whiteSpace=wrap;html=1;" vertex="1" parent="1">
          <mxGeometry x="350" y="300" width="200" height="60" as="geometry" />
        </mxCell>
        <mxCell id="O3FMRK-I6ijtwoRoacnp-4" value="รับค่าความสูง H จากผู้ใช้" style="parallelogram;whiteSpace=wrap;html=1;" vertex="1" parent="1">
          <mxGeometry x="350" y="390" width="200" height="60" as="geometry" />
        </mxCell>
        <mxCell id="O3FMRK-I6ijtwoRoacnp-5" value="แสดงข้อความ &quot;Enter base (W):&quot;" style="parallelogram;whiteSpace=wrap;html=1;" vertex="1" parent="1">
          <mxGeometry x="350" y="480" width="200" height="60" as="geometry" />
        </mxCell>
        <mxCell id="O3FMRK-I6ijtwoRoacnp-6" value="รับค่าฐาน W จากผู้ใช้" style="parallelogram;whiteSpace=wrap;html=1;" vertex="1" parent="1">
          <mxGeometry x="350" y="570" width="200" height="60" as="geometry" />
        </mxCell>
        <mxCell id="O3FMRK-I6ijtwoRoacnp-7" value="คำนวณพื้นที่ Area = (H * W) / 2" style="rounded=0;whiteSpace=wrap;html=1;" vertex="1" parent="1">
          <mxGeometry x="350" y="660" width="200" height="60" as="geometry" />
        </mxCell>
        <mxCell id="O3FMRK-I6ijtwoRoacnp-8" value="แสดงผลลัพธ์ &quot;Area = ...&quot;" style="parallelogram;whiteSpace=wrap;html=1;" vertex="1" parent="1">
          <mxGeometry x="350" y="750" width="200" height="60" as="geometry" />
        </mxCell>
        <mxCell id="O3FMRK-I6ijtwoRoacnp-9" value="Stop" style="ellipse;whiteSpace=wrap;html=1;" vertex="1" parent="1">
          <mxGeometry x="390" y="850" width="120" height="60" as="geometry" />
        </mxCell>
        <mxCell id="O3FMRK-I6ijtwoRoacnp-10" style="endArrow=classic;html=1;" edge="1" parent="1" source="O3FMRK-I6ijtwoRoacnp-1" target="O3FMRK-I6ijtwoRoacnp-2">
          <mxGeometry relative="1" as="geometry" />
        </mxCell>
        <mxCell id="O3FMRK-I6ijtwoRoacnp-11" style="endArrow=classic;html=1;" edge="1" parent="1" source="O3FMRK-I6ijtwoRoacnp-2" target="O3FMRK-I6ijtwoRoacnp-3">
          <mxGeometry relative="1" as="geometry" />
        </mxCell>
        <mxCell id="O3FMRK-I6ijtwoRoacnp-12" style="endArrow=classic;html=1;" edge="1" parent="1" source="O3FMRK-I6ijtwoRoacnp-3" target="O3FMRK-I6ijtwoRoacnp-4">
          <mxGeometry relative="1" as="geometry" />
        </mxCell>
        <mxCell id="O3FMRK-I6ijtwoRoacnp-13" style="endArrow=classic;html=1;" edge="1" parent="1" source="O3FMRK-I6ijtwoRoacnp-4" target="O3FMRK-I6ijtwoRoacnp-5">
          <mxGeometry relative="1" as="geometry" />
        </mxCell>
        <mxCell id="O3FMRK-I6ijtwoRoacnp-14" style="endArrow=classic;html=1;" edge="1" parent="1" source="O3FMRK-I6ijtwoRoacnp-5" target="O3FMRK-I6ijtwoRoacnp-6">
          <mxGeometry relative="1" as="geometry" />
        </mxCell>
        <mxCell id="O3FMRK-I6ijtwoRoacnp-15" style="endArrow=classic;html=1;" edge="1" parent="1" source="O3FMRK-I6ijtwoRoacnp-6" target="O3FMRK-I6ijtwoRoacnp-7">
          <mxGeometry relative="1" as="geometry" />
        </mxCell>
        <mxCell id="O3FMRK-I6ijtwoRoacnp-16" style="endArrow=classic;html=1;" edge="1" parent="1" source="O3FMRK-I6ijtwoRoacnp-7" target="O3FMRK-I6ijtwoRoacnp-8">
          <mxGeometry relative="1" as="geometry" />
        </mxCell>
        <mxCell id="O3FMRK-I6ijtwoRoacnp-17" style="endArrow=classic;html=1;" edge="1" parent="1" source="O3FMRK-I6ijtwoRoacnp-8" target="O3FMRK-I6ijtwoRoacnp-9">
          <mxGeometry relative="1" as="geometry" />
        </mxCell>
      </root>
    </mxGraphModel>
  </diagram>
</mxfile>
